<mxfile host="65bd71144e">
    <diagram id="MvP7egQnz-tXTz9G0kMg" name="Page-1">
        <mxGraphModel dx="1039" dy="554" grid="1" gridSize="10" guides="1" tooltips="1" connect="1" arrows="1" fold="1" page="1" pageScale="1" pageWidth="827" pageHeight="1169" math="0" shadow="0">
            <root>
                <mxCell id="0"/>
                <mxCell id="1" parent="0"/>
                <mxCell id="2" value="User" style="swimlane;" vertex="1" parent="1">
                    <mxGeometry x="690" y="540" width="200" height="170" as="geometry"/>
                </mxCell>
                <mxCell id="3" value="&lt;ul&gt;&lt;li&gt;name&lt;/li&gt;&lt;li&gt;email&lt;/li&gt;&lt;/ul&gt;" style="text;strokeColor=none;fillColor=none;html=1;whiteSpace=wrap;verticalAlign=middle;overflow=hidden;" vertex="1" parent="2">
                    <mxGeometry x="10" y="40" width="180" height="115" as="geometry"/>
                </mxCell>
                <mxCell id="36" style="edgeStyle=none;html=1;exitX=1;exitY=0.5;exitDx=0;exitDy=0;" edge="1" parent="1" source="4">
                    <mxGeometry relative="1" as="geometry">
                        <mxPoint x="690" y="314.57142857142867" as="targetPoint"/>
                    </mxGeometry>
                </mxCell>
                <mxCell id="38" style="edgeStyle=none;html=1;exitX=0.5;exitY=1;exitDx=0;exitDy=0;entryX=0;entryY=0.5;entryDx=0;entryDy=0;" edge="1" parent="1" source="4" target="2">
                    <mxGeometry relative="1" as="geometry"/>
                </mxCell>
                <mxCell id="4" value="BookMyShow" style="swimlane;" vertex="1" parent="1">
                    <mxGeometry x="380" y="130" width="200" height="370" as="geometry"/>
                </mxCell>
                <mxCell id="5" value="&lt;ul&gt;&lt;li&gt;List&amp;lt;Theatre&amp;gt;&lt;/li&gt;&lt;li&gt;List&amp;lt;User&amp;gt;&lt;/li&gt;&lt;li&gt;PaymentManager&lt;/li&gt;&lt;li&gt;BookingManager&lt;/li&gt;&lt;li&gt;searchByMovie(Movie)&lt;/li&gt;&lt;li&gt;listMovies(theatre)&lt;/li&gt;&lt;li&gt;bookTicket(Theatre, show) on pay&lt;/li&gt;&lt;li&gt;CRUD on movie&lt;/li&gt;&lt;li&gt;Show&lt;/li&gt;&lt;li&gt;seating arrangement&lt;/li&gt;&lt;/ul&gt;" style="text;strokeColor=none;fillColor=none;html=1;whiteSpace=wrap;verticalAlign=middle;overflow=hidden;" vertex="1" parent="4">
                    <mxGeometry x="10" y="40" width="180" height="300" as="geometry"/>
                </mxCell>
                <mxCell id="34" style="edgeStyle=none;html=1;exitX=1;exitY=0.5;exitDx=0;exitDy=0;entryX=0;entryY=0.5;entryDx=0;entryDy=0;" edge="1" parent="1" source="6" target="8">
                    <mxGeometry relative="1" as="geometry"/>
                </mxCell>
                <mxCell id="6" value="Theatre" style="swimlane;" vertex="1" parent="1">
                    <mxGeometry x="680" y="195" width="200" height="260" as="geometry"/>
                </mxCell>
                <mxCell id="7" value="&lt;ul&gt;&lt;li&gt;List&amp;lt;Screen&amp;gt;&lt;/li&gt;&lt;li&gt;addScreen()&lt;/li&gt;&lt;li&gt;removeScreen()&lt;/li&gt;&lt;li&gt;addShow()&lt;/li&gt;&lt;li&gt;removeShow()&lt;/li&gt;&lt;/ul&gt;" style="text;strokeColor=none;fillColor=none;html=1;whiteSpace=wrap;verticalAlign=middle;overflow=hidden;" vertex="1" parent="6">
                    <mxGeometry x="10" y="40" width="180" height="190" as="geometry"/>
                </mxCell>
                <mxCell id="29" style="edgeStyle=none;html=1;exitX=1;exitY=0.5;exitDx=0;exitDy=0;entryX=0;entryY=0.5;entryDx=0;entryDy=0;" edge="1" parent="1" source="8" target="16">
                    <mxGeometry relative="1" as="geometry"/>
                </mxCell>
                <mxCell id="8" value="Screen" style="swimlane;" vertex="1" parent="1">
                    <mxGeometry x="960" y="240" width="200" height="170" as="geometry"/>
                </mxCell>
                <mxCell id="9" value="&lt;ul&gt;&lt;li&gt;List&amp;lt;Show&amp;gt;&lt;/li&gt;&lt;/ul&gt;" style="text;strokeColor=none;fillColor=none;html=1;whiteSpace=wrap;verticalAlign=middle;overflow=hidden;" vertex="1" parent="8">
                    <mxGeometry x="10" y="40" width="180" height="115" as="geometry"/>
                </mxCell>
                <mxCell id="10" value="Movie" style="swimlane;" vertex="1" parent="1">
                    <mxGeometry x="1660" y="240" width="200" height="170" as="geometry"/>
                </mxCell>
                <mxCell id="11" value="&lt;ul&gt;&lt;li&gt;&lt;span style=&quot;color: rgb(192, 192, 192); background-color: transparent;&quot;&gt;Name&lt;/span&gt;&lt;/li&gt;&lt;li&gt;&lt;span style=&quot;color: rgb(192, 192, 192); background-color: transparent;&quot;&gt;released_on&lt;/span&gt;&lt;/li&gt;&lt;li&gt;&lt;span style=&quot;color: rgb(192, 192, 192); background-color: transparent;&quot;&gt;description&lt;/span&gt;&lt;/li&gt;&lt;li&gt;&lt;span style=&quot;color: rgb(192, 192, 192); background-color: transparent;&quot;&gt;cast&lt;/span&gt;&lt;/li&gt;&lt;/ul&gt;" style="text;strokeColor=none;fillColor=none;html=1;whiteSpace=wrap;verticalAlign=middle;overflow=hidden;" vertex="1" parent="10">
                    <mxGeometry x="10" y="40" width="180" height="115" as="geometry"/>
                </mxCell>
                <mxCell id="39" style="edgeStyle=none;html=1;exitX=0.5;exitY=0;exitDx=0;exitDy=0;shape=flexArrow;" edge="1" parent="1" source="12">
                    <mxGeometry relative="1" as="geometry">
                        <mxPoint x="1410" y="690" as="targetPoint"/>
                    </mxGeometry>
                </mxCell>
                <mxCell id="12" value="Normal" style="swimlane;" vertex="1" parent="1">
                    <mxGeometry x="1000" y="790" width="200" height="170" as="geometry"/>
                </mxCell>
                <mxCell id="13" value="&lt;ul&gt;&lt;li&gt;Value 1&lt;/li&gt;&lt;li&gt;Value 2&lt;/li&gt;&lt;li&gt;Value 3&lt;/li&gt;&lt;/ul&gt;" style="text;strokeColor=none;fillColor=none;html=1;whiteSpace=wrap;verticalAlign=middle;overflow=hidden;" vertex="1" parent="12">
                    <mxGeometry x="10" y="40" width="180" height="115" as="geometry"/>
                </mxCell>
                <mxCell id="30" style="edgeStyle=none;html=1;exitX=1;exitY=0.5;exitDx=0;exitDy=0;entryX=0;entryY=0.5;entryDx=0;entryDy=0;" edge="1" parent="1" source="16" target="10">
                    <mxGeometry relative="1" as="geometry"/>
                </mxCell>
                <mxCell id="31" style="edgeStyle=none;html=1;exitX=0.5;exitY=1;exitDx=0;exitDy=0;entryX=0.5;entryY=0;entryDx=0;entryDy=0;" edge="1" parent="1" source="16" target="19">
                    <mxGeometry relative="1" as="geometry"/>
                </mxCell>
                <mxCell id="16" value="Show" style="swimlane;" vertex="1" parent="1">
                    <mxGeometry x="1320" y="240" width="200" height="170" as="geometry"/>
                </mxCell>
                <mxCell id="17" value="&lt;ul&gt;&lt;li&gt;A movie&lt;/li&gt;&lt;li&gt;List&amp;lt;seat&amp;gt;&lt;/li&gt;&lt;li&gt;Time&lt;/li&gt;&lt;/ul&gt;" style="text;strokeColor=none;fillColor=none;html=1;whiteSpace=wrap;verticalAlign=middle;overflow=hidden;" vertex="1" parent="16">
                    <mxGeometry x="10" y="40" width="180" height="115" as="geometry"/>
                </mxCell>
                <mxCell id="19" value="Seat" style="swimlane;" vertex="1" parent="1">
                    <mxGeometry x="1320" y="520" width="200" height="170" as="geometry"/>
                </mxCell>
                <mxCell id="20" value="&lt;ul&gt;&lt;li&gt;id&lt;/li&gt;&lt;li&gt;isEmpty&lt;/li&gt;&lt;li&gt;price&lt;/li&gt;&lt;/ul&gt;" style="text;strokeColor=none;fillColor=none;html=1;whiteSpace=wrap;verticalAlign=middle;overflow=hidden;" vertex="1" parent="19">
                    <mxGeometry x="10" y="40" width="180" height="115" as="geometry"/>
                </mxCell>
                <mxCell id="40" style="edgeStyle=none;html=1;exitX=0.5;exitY=0;exitDx=0;exitDy=0;shape=flexArrow;" edge="1" parent="1" source="21">
                    <mxGeometry relative="1" as="geometry">
                        <mxPoint x="1400" y="690" as="targetPoint"/>
                    </mxGeometry>
                </mxCell>
                <mxCell id="21" value="Premium" style="swimlane;" vertex="1" parent="1">
                    <mxGeometry x="1383" y="790" width="200" height="170" as="geometry"/>
                </mxCell>
                <mxCell id="22" value="&lt;ul&gt;&lt;li&gt;Value 1&lt;/li&gt;&lt;li&gt;Value 2&lt;/li&gt;&lt;li&gt;Value 3&lt;/li&gt;&lt;/ul&gt;" style="text;strokeColor=none;fillColor=none;html=1;whiteSpace=wrap;verticalAlign=middle;overflow=hidden;" vertex="1" parent="21">
                    <mxGeometry x="10" y="40" width="180" height="115" as="geometry"/>
                </mxCell>
                <mxCell id="41" style="edgeStyle=none;html=1;exitX=0.5;exitY=0;exitDx=0;exitDy=0;entryX=0.5;entryY=1;entryDx=0;entryDy=0;shape=flexArrow;" edge="1" parent="1" source="23" target="19">
                    <mxGeometry relative="1" as="geometry"/>
                </mxCell>
                <mxCell id="23" value="Luxury" style="swimlane;" vertex="1" parent="1">
                    <mxGeometry x="1743" y="790" width="200" height="170" as="geometry"/>
                </mxCell>
                <mxCell id="24" value="&lt;ul&gt;&lt;li&gt;Value 1&lt;/li&gt;&lt;li&gt;Value 2&lt;/li&gt;&lt;li&gt;Value 3&lt;/li&gt;&lt;/ul&gt;" style="text;strokeColor=none;fillColor=none;html=1;whiteSpace=wrap;verticalAlign=middle;overflow=hidden;" vertex="1" parent="23">
                    <mxGeometry x="10" y="40" width="180" height="115" as="geometry"/>
                </mxCell>
            </root>
        </mxGraphModel>
    </diagram>
</mxfile>